<?xml version="1.0" encoding="utf-8"?>
<!-- Generator: Adobe Illustrator 26.3.1, SVG Export Plug-In . SVG Version: 6.00 Build 0)  -->
<svg version="1.1" id="Layer_1" xmlns="http://www.w3.org/2000/svg" xmlns:xlink="http://www.w3.org/1999/xlink" x="0px" y="0px"
	 viewBox="0 0 490.5 68.8" style="enable-background:new 0 0 490.5 68.8;" xml:space="preserve">
<style type="text/css">
	.st0{fill:#F79E1B;}
</style>
<path class="st0" d="M464.5,13.3H277.3l3.8-6.6L285,0h-79.5l3.8,6.6l3.8,6.6H0v3.4h51l1.6,2.9l1.6,2.9l2.6,4.6l2.6,4.6H27.3l3.2,5.5
	l3.2,5.5l3.2,5.5l3.2,5.5h175.8v-3.4h-10.4l-1.8-3.1l-1.8-3.2l-2.1-3.6l-2.1-3.5h-3.9l2.4,4l2.3,4l1.6,2.7l1.6,2.7h-28.9l-1.8-3.1
	l-1.8-3.2l-2.1-3.6l-2.1-3.5h-3.9l2.3,4l2.3,4l1.5,2.7l1.6,2.7h-28.8l-1.8-3.1l-1.8-3.2l-2.1-3.6l-2.1-3.5H128l2.3,4l2.3,4l1.6,2.7
	l1.6,2.7h-28.9l-1.8-3.1l-1.8-3.2l-2.1-3.6L99.1,37h-3.9l2.3,4l2.3,4l1.6,2.7l1.6,2.7H42l-2.3-3.8l-2.2-3.8L35.4,39l-2.2-3.8h32.1
	l-2.6-4.6L60.1,26l-2.6-4.6l-2.6-4.6h28.6l1.8,3.1l1.8,3.1l2.1,3.6l2.1,3.6h3.9l-2.3-4l-2.3-4L89,19.4l-1.6-2.7h28.9l1.8,3.1L120,23
	l2,3.5l2.1,3.6h3.9l-2.3-4l-2.3-4l-1.6-2.7l-1.6-2.7h28.9l1.9,3.1l1.8,3.2l2.1,3.6l2.1,3.6h3.9l-2.3-4l-2.3-4l-1.6-2.7l-1.6-2.7
	h28.9l1.8,3.1l1.8,3.1l2.1,3.6l2.1,3.6h3.9l-2.3-4l-2.3-4l-1.6-2.7l-1.6-2.7h28.9l5.1,8.9l5.1,8.8l4.6,8l4.6,8h-18.5v3.4h20.8
	l4.3,7.5l4.3,7.5l4.3-7.5l4.3-7.5h20.8v-3.4h-18.5l4.6-8l4.6-8l5.1-8.9l5.1-8.9h28.9l-1.6,2.7l-1.6,2.7l-2.3,4l-2.3,4h3.9l2.1-3.6
	l2.1-3.5l1.8-3.1l1.8-3.1h28.9l-1.6,2.7l-1.6,2.7l-2.3,4l-2.3,4h3.9l2.1-3.6l2.1-3.6l1.8-3.1l1.8-3.1h28.9l-1.6,2.7l-1.6,2.7l-2.3,4
	l-2.3,4h3.9l2.1-3.6l2.1-3.6l1.8-3.1l1.8-3.1h28.9l-1.6,2.7l-1.6,2.7l-2.3,4l-2.3,4h3.9l2.1-3.6l2.1-3.6l1.8-3.1l1.8-3.2h28.6
	l-2.6,4.6l-2.6,4.7l-2.6,4.6l-2.6,4.6h32.1l-2.2,3.7l-2.1,3.8l-2.2,3.8l-2.2,3.8h-61l1.6-2.7l1.5-2.7l2.3-4l2.3-4h-3.9l-2.1,3.6
	l-2.1,3.6l-1.8,3.2l-1.8,3.1h-28.9l1.6-2.7l1.6-2.7l2.3-4l2.3-4h-3.9l-2.1,3.6l-2.1,3.6l-1.8,3.2l-1.8,3.1h-28.9l1.6-2.7L325,45
	l2.3-4l2.3-4h-3.9l-2.1,3.6l-2,3.5l-1.8,3.2l-1.8,3.1h-28.9l1.6-2.7l1.6-2.7l2.3-4l2.3-4h-3.9l-2.1,3.6l-2.1,3.6l-1.8,3.1l-1.8,3.1
	h-10.4v3.4h175.8l3.2-5.5l3.2-5.5l3.2-5.5l3.2-5.5H431l2.6-4.6l2.6-4.6l1.6-2.9l1.6-2.9h51v-3.4H464.5L464.5,13.3z"/>
</svg>
